<svg aria-hidden="true" style="position: absolute; width: 0; height: 0; overflow: hidden;" version="1.1" xmlns="http://www.w3.org/2000/svg" xmlns:xlink="http://www.w3.org/1999/xlink">
<defs>
<symbol id="icon-default" viewBox="0 0 32 32">
<path fill="#f4f4fd" style="fill: var(--color1, #f4f4fd)" d="M22.926 8.982c0.319-0.277 0.739-0.446 1.198-0.446 0.008 0 0.015 0 0.023 0h-0.001c0.001 0 0.001 0 0.002 0 0.466 0 0.891 0.175 1.214 0.462l-0.002-0.002c0.309 0.275 0.508 0.669 0.524 1.11l0 0.003c0 0.010 0 0.022 0 0.033 0 0.431-0.176 0.82-0.46 1.101l-0 0-9.312 10.751c-0.159 0.157-0.347 0.284-0.557 0.372l-0.012 0.004c-0.209 0.088-0.453 0.139-0.708 0.139-0.479 0-0.915-0.179-1.246-0.474l0.002 0.002-6.176-5.701c-0.167-0.143-0.304-0.317-0.402-0.513l-0.004-0.009c-0.097-0.194-0.154-0.423-0.154-0.665 0-0.452 0.198-0.857 0.512-1.134l0.002-0.001c0.164-0.151 0.358-0.271 0.572-0.352l0.012-0.004c0.195-0.075 0.42-0.118 0.656-0.118 0.257 0 0.502 0.052 0.725 0.145l-0.012-0.005c0.221 0.091 0.409 0.218 0.568 0.374l-0-0 4.887 4.509 8.106-9.532c0.015-0.017 0.030-0.033 0.046-0.048l-0.002-0z"></path>
<path fill="none" stroke="#2e2f42" style="stroke: var(--color2, #2e2f42)" stroke-linejoin="miter" stroke-linecap="butt" stroke-miterlimit="4" stroke-width="2.5" d="M4.001 1.25h24.006c1.519 0 2.751 1.232 2.751 2.751v24.006c0 1.519-1.232 2.751-2.751 2.751h-24.006c-1.519 0-2.751-1.232-2.751-2.751v-24.006c0-1.519 1.232-2.751 2.751-2.751z"></path>
</symbol>
<symbol id="icon-click" viewBox="0 0 32 32">
<path fill="#404bbf" style="fill: var(--color3, #404bbf)" d="M4.001 1.25h24.006c1.519 0 2.751 1.232 2.751 2.751v24.006c0 1.519-1.232 2.751-2.751 2.751h-24.006c-1.519 0-2.751-1.232-2.751-2.751v-24.006c0-1.519 1.232-2.751 2.751-2.751z"></path>
<path fill="#f4f4fd" style="fill: var(--color1, #f4f4fd)" d="M22.898 8.512c0.33-0.319 0.779-0.515 1.274-0.515 1.004 0 1.819 0.806 1.834 1.806l0 0.001c0 0.014 0.001 0.031 0.001 0.047 0 0.483-0.184 0.922-0.486 1.252l0.001-0.001-9.79 12.311c-0.338 0.364-0.818 0.591-1.352 0.591-0.247 0-0.483-0.049-0.699-0.137l0.012 0.004c-0.239-0.099-0.442-0.237-0.612-0.408l-0-0-6.494-6.528c-0.362-0.339-0.588-0.819-0.588-1.353 0-0.251 0.050-0.49 0.14-0.708l-0.005 0.012c0.282-0.684 0.944-1.156 1.715-1.156 0.009 0 0.018 0 0.026 0h-0.001c0.519 0.010 0.984 0.234 1.311 0.587l0.001 0.001 5.139 5.165 8.522-10.919c0.016-0.020 0.032-0.037 0.050-0.054l-0.002-0z"></path>
<path fill="none" stroke="#404bbf" style="stroke: var(--color3, #404bbf)" stroke-linejoin="miter" stroke-linecap="butt" stroke-miterlimit="4" stroke-width="2.5" d="M4.001 1.25h24.006c1.519 0 2.751 1.232 2.751 2.751v24.006c0 1.519-1.232 2.751-2.751 2.751h-24.006c-1.519 0-2.751-1.232-2.751-2.751v-24.006c0-1.519 1.232-2.751 2.751-2.751z"></path>
</symbol>
</defs>
</svg>
